<svg xmlns="http://www.w3.org/2000/svg" width="85" height="22" fill="#fff"><path d="M.3 1.9h8.3c.1 0 .2.1.2.2v8.3c0 .1-.1.2-.2.2H.3c-.1 0-.2-.1-.2-.2V2.1c0-.1.1-.2.2-.2zm9.5 0H18c.1 0 .2.1.2.2v8.3c0 .1-.1.2-.2.2H9.8c-.1 0-.2-.1-.2-.2V2.1c0-.1.1-.2.2-.2zM43 8.6c-.8.2-1.6.8-2.1 1.5-.6.9-.8 1.9-.7 2.9 0 1 .4 1.9 1.1 2.6.6.6 1.5 1 2.4 1 .8 0 1.7-.1 2.5-.5.1 0 .1-.1.1-.2v-1.6c-.5.4-1.1.6-1.7.7-.6 0-1.3-.1-1.7-.5-.5-.4-.7-1-.8-1.5-.1-.8 0-1.6.5-2.2.3-.5 1-.8 1.5-.9.8-.1 1.5.2 2.1.7V8.8c-.2-.1-.3-.2-.5-.2-.8-.2-1.8-.2-2.7 0zm9.1 0c-.5-.1-1.1-.1-1.6.2-.5.2-.8.7-1 1.2V8.6h-1.7c-.1 0-.2.1-.2.2v7.4c0 .1.1.2.2.2h1.5c.1 0 .2-.1.2-.2v-3.6c0-.5 0-1.1.3-1.6.2-.5.6-.9 1.2-.9a3.08 3.08 0 0 1 1.3.3V8.7c-.1 0-.1-.1-.2-.1zm-13.3.1h-1.7v7.6c0 .1.1.2.2.2h1.5c.1 0 .2-.1.2-.2V8.8c0-.1-.1-.1-.2-.1zm-3.6-3.1h-2.3c-.1 0-.1.1-.2.1l-3 7.5c-.1.1-.3.1-.3 0l-3-7.5c-.1 0-.1-.1-.2-.1h-2.6v10.7c0 .1.1.2.2.2h1.4c.1 0 .2-.1.2-.2V8l.1.2 3.3 8.1c0 .1.1.1.2.1h1.1c.1 0 .1-.1.2-.1l3.2-8.1c0-.1.1-.1.1-.2v8.3c0 .1.1.2.2.2h1.5c.1 0 .2-.1.2-.2V5.7c-.2-.1-.2-.1-.3-.1zm2.7-.3c-.5.1-1 .5-.9 1.1 0 .5.4.9.9 1s1-.1 1.2-.5.2-.9-.1-1.2-.7-.4-1.1-.4zm47 3.5c0-.1-.1-.2-.2-.2h-1.5c-.1 0-.2-.1-.2-.2V6.5c0-.1-.1-.2-.2-.2l-1.5.5c-.1 0-.1.1-.1.2v1.5c0 .1-.1.2-.2.2h-2.6V7.3c0-.4.3-.7.6-.9.4-.2.9-.1 1.4.1V5c0-.1-.1-.2-.1-.2-.9-.2-1.8-.1-2.6.4-.5.3-.9.8-1 1.4-.2.7-.1 1.3-.1 2h-1.3v1.5h1.3v6.1c0 .1.1.2.2.2h1.5c.1 0 .2-.1.2-.2v-5.9c0-.1.1-.2.2-.2H81c.1 0 .2.1.2.2v3.8c0 .6.1 1.3.5 1.8.4.4.9.6 1.5.7.5 0 1.1 0 1.6-.2.1 0 .1-.1.1-.2v-1.4c-.4.3-1 .4-1.4.1-.3-.2-.4-.5-.4-.7-.1-.5 0-1 0-1.5v-2.6h1.7c.1 0 .2-.1.2-.2V8.8zm-11.6.1c-.8-.4-1.8-.5-2.8-.4-.8.1-1.5.4-2 .9-.7.6-1.1 1.5-1.2 2.4s-.1 1.8.3 2.7c.4.8 1 1.5 1.9 1.8.8.3 1.8.4 2.6.2.9-.1 1.8-.6 2.3-1.3.6-.8.8-1.7.8-2.6a6.28 6.28 0 0 0-.3-1.9c-.3-.8-.9-1.5-1.6-1.8zm-.1 4.4c-.1.4-.2.8-.5 1.1s-.7.5-1.1.6-.9 0-1.3-.1a2.41 2.41 0 0 1-1-1 3.21 3.21 0 0 1-.2-1.7c0-.5.2-1.1.6-1.5.3-.5.8-.7 1.3-.7s1.1.1 1.5.4.6.8.7 1.2c.1.6.1 1.2 0 1.7zm-8.1-1.1c-.5-.3-1.2-.5-1.7-.8-.3-.2-.4-.6-.3-.9.2-.3.5-.5.9-.5.7 0 1.4.2 2 .6V9c0-.1 0-.1-.1-.2-.8-.3-1.6-.4-2.5-.2-.7.1-1.4.5-1.8 1.1s-.4 1.4-.2 2c0 .1.2.4.2.5.5.7 1.3.9 2 1.2.3.1.6.3.8.5.2.3.2.9-.2 1.1s-.9.2-1.3.1c-.6-.1-1.2-.4-1.7-.7v1.7c0 .1 0 .1.1.2.6.2 1.2.3 1.8.4.9 0 1.9-.2 2.6-.8s.9-1.8.5-2.6c-.3-.6-.7-.9-1.1-1.1zM58.3 8.8c-.8-.4-1.8-.4-2.7-.3s-1.9.6-2.4 1.3-.8 1.5-.9 2.4c-.1 1 .1 2.1.7 2.9.5.7 1.3 1.2 2.2 1.4a4.11 4.11 0 0 0 2.2 0c.8-.2 1.6-.6 2.1-1.3.5-.6.8-1.5.8-2.3.1-.8 0-1.7-.4-2.5-.3-.7-.9-1.3-1.6-1.6zm-.2 5.2a1.96 1.96 0 0 1-.9.9c-.1.1-.2.1-.4.1-1.3.2-2.5-.8-2.6-2v-.9c.1-.6.3-1.2.7-1.6.3-.3.8-.5 1.2-.5.6 0 1.2.1 1.6.5s.6 1 .6 1.6c.1.7.1 1.3-.2 1.9zM.3 11.4h8.3c.1 0 .2.1.2.2v8.3c0 .1-.1.2-.2.2H.3c-.1 0-.2-.1-.2-.2v-8.3c0-.1.1-.2.2-.2zm9.5 0H18c.1 0 .2.1.2.2v8.3c0 .1-.1.2-.2.2H9.8c-.1 0-.2-.1-.2-.2v-8.3c0-.1.1-.2.2-.2z"/></svg>