<svg xmlns="http://www.w3.org/2000/svg" width="203.4" height="49.1" fill="#fff"><path d="M181.5 16.5c1.2 0 2.1-.6 2.2-1.4l1.1-12.9c0-1.3-1.5-2.3-3.4-2.3s-3.4 1-3.4 2.3l1.1 12.9c.4.8 1.3 1.4 2.4 1.4m-6.9 4.1c.6-1 .5-2.1-.1-2.6L164 10.5c-1.1-.6-2.7.1-3.7 1.8-.9 1.6-.8 3.4.3 4.1l11.7 5.4c.7.3 1.7-.3 2.3-1.2m13.9-.1c.6 1 1.6 1.5 2.3 1.2l11.7-5.4c1.1-.6 1.3-2.4.3-4.1-.9-1.6-2.6-2.4-3.7-1.8l-10.6 7.4c-.5.6-.6 1.8 0 2.7m-7 12.1c1.2 0 2.1.6 2.2 1.4l1.1 12.9c0 1.3-1.5 2.3-3.4 2.3s-3.4-1-3.4-2.3l1.1-12.9c.4-.8 1.3-1.4 2.4-1.4m7-4c.6-1 1.6-1.5 2.3-1.2l11.7 5.4c1.1.6 1.3 2.4.3 4.1-.9 1.6-2.6 2.4-3.7 1.7l-10.6-7.4c-.5-.5-.6-1.6 0-2.6m-13.9 0c.6 1 .5 2.1-.1 2.6L164 38.6c-1.1.6-2.7-.1-3.7-1.7-.9-1.6-.8-3.4.3-4.1l11.7-5.4c.7-.3 1.7.2 2.3 1.2m-59.7 2.6c0 .4 0 .8-.1 1.2-.4 1.5-2 2.7-3.9 2.7-1.6 0-2.9-.9-2.9-2.8 0-2.9 3.2-3.8 6.9-3.7v2.6zm5.8-5.2c0-4.9-2.1-9.1-9.1-9.1-3.6 0-6.5 1-8 1.9l1.1 3.9c1.4-.9 3.7-1.6 5.8-1.6 3.6 0 4.1 2 4.1 3.3v.3c-7.7 0-12.6 2.7-12.6 8.1 0 3.3 2.5 6.5 6.8 6.5 2.7 0 4.9-1.1 6.2-2.8h.1s.9 3.7 5.8 2.3c-.3-1.5-.3-3.2-.3-5.2l.1-7.6M0 10.3l5.9 24.1c.9 3.9 2.6 5.4 7.5 4.4L16.6 26c.8-3.2 1.3-5.5 1.9-8.7h.1c.4 3.3.9 5.5 1.5 8.7l1.9 8.9c.7 3.1 2.5 5 7.3 3.9l7.5-28.5h-6.1l-2.6 12.3c-.7 3.6-1.3 6.4-1.8 9.7h-.1c-.4-3.3-1-5.9-1.7-9.4l-2.7-12.6h-6.3l-2.9 12.2c-.8 3.7-1.6 6.7-2.1 9.9h-.1L8.5 22 6.2 10.2l-6.2.1m48.3 20.9c0 .4 0 .8-.1 1.2-.4 1.5-2 2.7-3.9 2.7-1.6 0-2.9-.9-2.9-2.8 0-2.9 3.2-3.8 6.9-3.7v2.6zm5.8-5.2c0-4.9-2.1-9.1-9.1-9.1-3.6 0-6.5 1-8 1.9l1.1 3.9c1.4-.9 3.7-1.6 5.8-1.6 3.6 0 4.1 2 4.1 3.3v.3c-7.7 0-12.6 2.7-12.6 8.1 0 3.3 2.5 6.5 6.8 6.5 2.7 0 4.9-1.1 6.2-2.8h.1s.9 3.7 5.8 2.3c-.3-1.5-.3-3.2-.3-5.2l.1-7.6m9.7 6.8V10.3H58v28.5h5.8v-6m75.7-22.5v21c0 2.9.5 4.9 1.7 6.2 1 1.1 2.7 1.8 4.7 1.8 1.7 0 3.4-.3 4.2-.6l-.1-4.5c-.6.1-1.3.3-2.2.3-2 0-2.6-1.3-2.6-3.9v-8h5V17h-5v-6.7h-5.7m-14.9 7.1v21.4h6v-11c0-.6 0-1.1.1-1.6.4-2.3 2.2-3.8 4.7-3.8.7 0 1.2.1 1.7.2V17c-.5-.1-.8-.1-1.3-.1-2.2 0-4.8 1.4-5.8 4.5h-.2v-4h-5.2m-56.8 0v21.4h5.8V26.3c0-.6.1-1.2.3-1.8.5-1.3 1.7-2.7 3.5-2.7 2.3 0 3.4 2 3.4 4.9v12.2h5.8V26.1c0-.6.1-1.2.2-1.7.5-1.4 1.7-2.6 3.5-2.6 2.4 0 3.5 2 3.5 5.3v11.7h5.8V26.2c0-6.7-3.4-9.3-7.2-9.3-1.7 0-3 .4-4.2 1.2-1 .6-1.9 1.5-2.7 2.7h-.1c-.9-2.3-3.1-3.8-5.9-3.8-3.6 0-5.2 1.8-6.2 3.4h-.1v-2.9l-5.4-.1"/></svg>