<svg xmlns="http://www.w3.org/2000/svg" width="97.4" height="19.9"><g fill="#fff" fill-rule="evenodd"><path d="M9.2 0h-.6C3.7 0 0 6.3 0 13c0 3.8 1.7 6.4 4.6 6.8v-3.4c-.9-.4-1.4-1.6-1.4-3.3 0-4.9 2.4-9.8 5.3-9.8.2 0 .4 0 .7.1V0z"/><path d="M4.6 19.8c.3 0 .6.1.9.1 1.7 0 3-.6 4.8-2.7v-5.1c-2.4 3.7-3.3 4.6-4.6 4.6a1.69 1.69 0 0 1-1-.3v3.4h-.1zm22.1-10a18.7 18.7 0 0 1 .3 3.4c0 2.2-.7 3.5-2.2 3.5-1.4 0-2.1-1-4.9-5.4l-1.8-2.9c-.1-.2-.2-.4-.4-.6L15.9 11l1.5 2.5c2.9 4.8 4.4 6.4 7.3 6.4 3.3 0 5.1-2.7 5.1-7 0-1.1-.1-2.1-.3-3.1h-2.8z"/><path d="M21.5 0c-.7 0-1.4.2-2.1.5v2.7c.6-.4 1.2-.6 1.9-.6 2.6 0 4.7 3 5.5 7.2h2.9c-1-5.6-4.3-9.8-8.2-9.8z"/><path d="M19.7.4V3c-.9.6-1.8 1.6-2.8 3.2C16 7.7 15.7 8 15 9.4l-2.2 3.9c-1.1 1.9-2 3.2-2.8 4.2v-5c.1-.2.3-.4.4-.7l3.1-4.7 1.9-2.8C16.6 2.5 18 1 19.7.4z"/></g><path fill="#fff" d="M18.2 8.3C14.4 2.2 11.9 0 8.6 0v3.2c2.1 0 3.8 1.7 7.4 7.8l.2.4 2-3.1zm27.9 3.6L39.8.6h-3.7v18.5h3V5l5.5 9.8h2.8L52.9 5v14.2h3V.6h-3.6l-6.2 11.3zM68.7 6c-.9-.6-2.1-1-3.4-1s-2.5.4-3.5 1-1.8 1.5-2.4 2.6-.9 2.4-.9 3.8.3 2.6.9 3.7 1.4 1.9 2.5 2.5c1 .6 2.3.9 3.7.9 2.3 0 4.2-.7 5.8-2.2l-1.6-1.9c-.6.5-1.2.9-1.8 1.2s-1.4.4-2.3.4c-1.1 0-2-.3-2.8-1-.7-.6-1.2-1.5-1.4-2.7h10.2v-.8c0-1.5-.3-2.8-.8-3.9s-1.2-2-2.2-2.6zm-7.2 5.2c.2-1.1.6-2 1.3-2.6.7-.7 1.5-1 2.5-1s1.8.3 2.5 1c.6.6 1 1.5 1.1 2.7l-7.4-.1zm16.7-9.9h-2.9v4h-2.8v2.5h2.8v6.6c0 3.4 1.6 5.1 4.7 5.1.4 0 .9 0 1.3-.1s.7-.1 1.1-.2v-2.4c-.3.1-.6.1-.9.1h-1c-.9 0-1.5-.2-1.8-.7-.4-.4-.5-1.2-.5-2.2V7.8h4.2V5.4h-4.2V1.3zm16.4 4.1v1.8c-.5-.7-1.1-1.2-1.9-1.6-.7-.4-1.6-.6-2.5-.6-1.3 0-2.4.3-3.3.9-1 .6-1.7 1.5-2.3 2.6-.5 1.1-.8 2.3-.8 3.7s.3 2.7.8 3.7c.5 1.1 1.3 1.9 2.2 2.6.9.6 2 .9 3.2.9 1 0 1.9-.2 2.6-.6a4.44 4.44 0 0 0 1.9-1.7V19h2.8V5.4h-2.7zm-.1 8.9c-.3.8-.8 1.4-1.5 1.9s-1.5.7-2.4.7c-1.2 0-2.2-.4-2.9-1.2s-1.1-2-1.1-3.4.4-2.5 1.1-3.4c.7-.8 1.7-1.2 3-1.2.9 0 1.6.2 2.3.7s1.2 1.1 1.5 1.9v4z"/></svg>