<svg xmlns="http://www.w3.org/2000/svg" width="124.2" height="37.4" fill="#fff" fill-rule="evenodd"><path d="M77.1 29.2c-7.2 5.3-17.7 8.2-26.7 8.2-12.6 0-24-4.7-32.6-12.4-.7-.6-.1-1.4.7-1 9.3 5.4 20.7 8.6 32.6 8.6 8 0 16.8-1.7 24.9-5.1 1.2-.4 2.2.9 1.1 1.7zm3-3.4c-.9-1.2-6.1-.6-8.4-.3-.7.1-.8-.5-.2-1 4.1-2.9 10.9-2 11.7-1.1.8 1-.2 7.8-4.1 11-.6.5-1.2.2-.9-.4.8-2.1 2.8-7 1.9-8.2zM71.8 4.1V1.3a.68.68 0 0 1 .7-.7h12.6a.68.68 0 0 1 .7.7v2.4c0 .4-.3.9-1 1.8l-6.5 9.3c2.4 0 5 .3 7.2 1.5.5.3.6.7.7 1.1v3c0 .4-.4.9-.9.7-3.9-2-9.1-2.3-13.3 0-.4.2-.9-.2-.9-.7v-2.9c0-.4 0-1.2.5-1.9l7.6-10.9h-6.6c-.5.1-.8-.2-.8-.6zM25.7 21.7h-3.8c-.3 0-.7-.3-.7-.7V1.3a.68.68 0 0 1 .7-.7h3.6a.68.68 0 0 1 .7.7v2.6h.1C27.2 1.4 29 .2 31.4.2s3.9 1.2 5 3.7c.9-2.5 3.1-3.7 5.3-3.7 1.6 0 3.4.7 4.4 2.2 1.2 1.7 1 4.1 1 6.2V21a.68.68 0 0 1-.7.7h-3.8a.68.68 0 0 1-.7-.7V10.5c0-.8.1-2.9-.1-3.7-.3-1.3-1.1-1.7-2.3-1.7-.9 0-1.9.6-2.3 1.6s-.3 2.7-.3 3.8V21a.68.68 0 0 1-.7.7h-3.8a.68.68 0 0 1-.7-.7V10.5c0-2.2.3-5.4-2.4-5.4s-2.7 3.1-2.7 5.4V21c-.1.4-.4.7-.9.7zM96.8.2c5.7 0 8.8 4.9 8.8 11.1 0 6-3.4 10.8-8.8 10.8-5.6 0-8.6-4.9-8.6-11C88.1 5 91.2.2 96.8.2zm0 4c-2.8 0-3 3.9-3 6.3s0 7.5 3 7.5 3.1-4.1 3.1-6.7c0-1.7-.1-3.7-.6-5.2-.4-1.3-1.3-1.9-2.5-1.9zm16.1 17.5h-3.8a.68.68 0 0 1-.7-.7V1.2c0-.3.3-.7.7-.7h3.6c.3 0 .6.3.7.6v3h.1c1.1-2.7 2.6-4 5.2-4 1.7 0 3.4.6 4.5 2.3 1 1.6 1 4.2 1 6.1v12.4c0 .3-.3.6-.7.6h-3.8c-.3 0-.7-.3-.7-.6V10.3c0-2.2.3-5.3-2.4-5.3-.9 0-1.8.6-2.2 1.6-.5 1.2-.6 2.4-.6 3.7V21c-.1.4-.5.7-.9.7zm-51.2-9.5c0 1.5 0 2.7-.7 4.1-.6 1.1-1.6 1.7-2.7 1.7-1.5 0-2.4-1.1-2.4-2.8 0-3.3 2.9-3.9 5.7-3.9v.9zm3.9 9.4c-.3.2-.6.3-.9.1-1.3-1-1.5-1.6-2.2-2.6-2.1 2.1-3.6 2.8-6.3 2.8-3.2 0-5.8-2-5.8-6 0-3.1 1.7-5.2 4.1-6.3 2.1-.9 5-1.1 7.2-1.4v-.4c0-.9.1-2-.5-2.8-.5-.7-1.4-1-2.1-1-1.5 0-2.8.7-3.1 2.3-.1.3-.3.7-.7.7l-3.7-.4c-.3-.1-.7-.3-.6-.8C52 1.4 56 0 59.7 0c1.9 0 4.3.5 5.8 1.9 1.9 1.7 1.7 4.1 1.7 6.6v6c0 1.8.7 2.6 1.4 3.6.3.3.3.8 0 1-.8.6-2.2 1.9-3 2.5zm-54.2-9.4c0 1.5 0 2.7-.7 4.1C10.1 17.4 9.1 18 8 18c-1.5 0-2.4-1.1-2.4-2.8 0-3.3 2.9-3.9 5.7-3.9v.9zm3.8 9.4c-.3.2-.6.3-.9.1-1.3-1-1.5-1.6-2.2-2.6-2.1 2.1-3.6 2.8-6.3 2.8-3.2 0-5.8-2-5.8-6 0-3.1 1.7-5.2 4.1-6.3 2.1-.9 5-1.1 7.2-1.4v-.4c0-.9.1-2-.5-2.8-.5-.7-1.4-1-2.1-1-1.5 0-2.8.7-3.1 2.3-.1.4-.3.8-.6.8l-3.7-.4C1 6.6.6 6.4.7 5.9 1.6 1.4 5.6 0 9.3 0c1.9 0 4.3.5 5.8 1.9C17 3.7 16.8 6 16.8 8.5v6c0 1.8.7 2.6 1.4 3.6.3.3.3.8 0 1-.8.6-2.2 1.9-3 2.5z"/></svg>