<svg xmlns="http://www.w3.org/2000/svg" width="264.3" height="34.4" fill="#fff"><path d="M225.8 13.7v20.8h6.6V20.6h24.3v13.8h6.6V13.7h-37.5m5.9-6.8h25.6c3.6-.7 6.2-3.9 6.9-6.9h-39.5c.9 3 3.5 6.2 7 6.9m-26.1 27.5c3.3-1.4 5.1-3.9 5.9-6.7h-29.9V.1h-6.7v34.3h30.7M125.1 6.8h23.7c3.6-1 6.5-3.8 7.3-6.7h-37.6v20.3h30.7v7.1h-24.1c-3.8 1-7 3.6-8.6 6.9h39.4V13.7h-30.7l-.1-6.9m-58.4.1h25.6c3.6-.6 6.3-3.9 6.9-6.9H59.7c.7 3 3.4 6.2 7 6.9m0 13.6h25.6c3.6-.7 6.3-3.9 6.9-6.9H59.7c.7 3 3.4 6.1 7 6.9m0 13.9h25.6c3.6-.7 6.3-3.9 6.9-6.9H59.7c.7 3 3.4 6.3 7 6.9M0 .1c.8 3 3.4 6.1 6.9 6.8h10.8l.6.2v27.2H25V7.1l.6-.2h10.8C40 6 42.6 3.1 43.3.1V0L0 .1"/></svg>