<svg xmlns="http://www.w3.org/2000/svg" xmlns:xlink="http://www.w3.org/1999/xlink" viewBox="0 0 54 50.72"><g fill="#fff"><use xlink:href="#a"/><use xlink:href="#b"/><use xlink:href="#c"/><use xlink:href="#d"/><use xlink:href="#e"/><use xlink:href="#f"/><use xlink:href="#g"/><use xlink:href="#h"/><use xlink:href="#i"/><use xlink:href="#j"/><use xlink:href="#k"/><use xlink:href="#l"/><use xlink:href="#m"/><use xlink:href="#n"/><use xlink:href="#o"/><use xlink:href="#p"/><use xlink:href="#q"/><use xlink:href="#r"/><use xlink:href="#s"/><use xlink:href="#t"/><use xlink:href="#u"/><use xlink:href="#v"/><use xlink:href="#w"/><use xlink:href="#x"/><use xlink:href="#y"/><use xlink:href="#z"/><use xlink:href="#A"/><use xlink:href="#B"/><use xlink:href="#C"/><use xlink:href="#D"/><use xlink:href="#E"/><use xlink:href="#F"/><use xlink:href="#a"/><use xlink:href="#b"/><use xlink:href="#c"/><use xlink:href="#d"/><use xlink:href="#e"/><use xlink:href="#f"/><use xlink:href="#g"/><use xlink:href="#h"/><use xlink:href="#i"/><use xlink:href="#j"/><use xlink:href="#k"/><use xlink:href="#l"/><use xlink:href="#m"/><use xlink:href="#n"/><use xlink:href="#o"/><use xlink:href="#p"/><use xlink:href="#q"/><use xlink:href="#r"/><use xlink:href="#s"/><use xlink:href="#t"/><use xlink:href="#u"/><use xlink:href="#v"/><use xlink:href="#w"/><use xlink:href="#x"/><use xlink:href="#y"/><use xlink:href="#z"/><use xlink:href="#A"/><use xlink:href="#B"/><use xlink:href="#C"/><use xlink:href="#D"/><use xlink:href="#E"/><use xlink:href="#F"/></g><defs><path id="a" d="M8.77 5c-.08.9-.41 1.72-.74 2.37-.08.41-.33.66-.33.91-.08.24-.24.32-.24.32s-.33-.24-.66-.65a3.89 3.89 0 0 1-.57-2.05c0-.98.49-1.97.9-2.62.08-.25.24-.33.33-.58.24-.08.24-.24.32-.32l.33-.33a3.47 3.47 0 0 0 .41.74c.08.32.08.57.25.98V5z"/><path id="b" d="M5.08 11.64c.08.98 0 2.05-.08 2.87 0 .25-.08.41-.08.57 0 .25 0 .33-.08.41 0 .25-.08.41-.08.41s-.25-.25-.74-.57c-.25-.25-.41-.41-.66-.74s-.41-.74-.57-1.23c-.25-.98-.08-2.21.25-3.03.08-.41.25-.9.33-1.07.08-.41.25-.57.25-.57l.25.25.57.57c.25.25.33.57.57.9-.18.24-.09.65.07 1.23z"/><path id="c" d="M3.2 18.85c.41.98.66 2.21.9 3.03 0 .25.08.41.08.66s.08.33.08.57v.41h-.33c-.25 0-.41-.08-.74-.25-.33-.08-.66-.33-.98-.57-.33-.33-.66-.66-.98-1.23-.57-.98-.74-2.38-.74-3.36V16.8c0-.33.08-.57.08-.57s.41.08.98.57c.25.25.57.41.9.9.17.25.5.66.75 1.15z"/><path id="d" d="M3.52 26.47c.9.9 1.39 1.97 1.97 2.7 0 .08.08.25.08.33s.08.25.08.33c.08.25.25.33.25.41a1.06 1.06 0 0 0 .25.41s-.08 0-.33.08c-.25 0-.57.08-.9 0-.66 0-1.64-.25-2.62-1.07-.98-.9-1.64-2.21-1.97-3.28-.08-.33-.08-.57-.25-.74-.08-.16-.08-.32-.08-.57v-.57h.33c.25 0 .57.08.9.25.33.08.74.33 1.07.57.25.08.41.33.66.41.07.33.32.57.56.74z"/><path id="e" d="M6.39 33.51c.08.08.16.08.41.25.08.08.33.25.41.25.25.25.57.33.74.57l.33.33c.08 0 .08.08.25.08.08 0 .08.08.25.08.25.25.41.33.66.57.41.33.74.66.98.9l.33.33s-.25.33-.41.41c-.25.08-.41.25-.9.33-.33.08-.9.25-1.31.25-.57 0-1.07-.08-1.72-.41-1.31-.57-2.38-1.64-3.2-2.7-.25-.25-.33-.57-.57-.74-.08-.25-.25-.41-.33-.57l-.33-.66s.08 0 .33-.08h.98c.25 0 .41 0 .66.08.25 0 .41.08.74.08.25.08.57.08.74.25.39.16.63.32.96.4z"/><path id="f" d="M11.23 39.41c.66.08 1.31.33 1.97.57.33.08.66.25.98.33.08.08.33.08.41.25.08 0 .33.08.41.08l1.31.57c.08.08.33.08.33.08.08 0 .08.08.08.08s-.08.08-.25.33c-.08.25-.41.41-.74.66s-.74.41-1.31.66c-.25.08-.57.08-.9.25h-1.07a2.46 2.46 0 0 1-1.07-.25c-.33-.08-.74-.25-1.07-.41-.33-.08-.66-.33-1.07-.57-.33-.25-.66-.41-.9-.57-.08 0-.08-.08-.25-.08-.08 0-.08-.08-.25-.08l-.33-.33c-.25-.25-.41-.33-.57-.57-.16-.25-.41-.41-.41-.41s.08-.08.33-.25c.25-.08.57-.25.98-.33.25 0 .41-.08.66-.08s.57-.08.74-.08h.9l1.09.15z"/><path id="g" d="M17.86 43.35c.33-.08.74-.08 1.07-.08s.74-.08 1.07-.08h4.18s0 .08-.08.41c-.08.25-.25.57-.41.98-.08.25-.25.41-.41.66-.08.08-.25.25-.25.33l-.33.33c-.25.25-.57.41-.74.57-.33.25-.66.33-1.07.41s-.74.25-1.23.25c-.41.08-.9.08-1.31 0-.41 0-.9-.08-1.31-.08-.41-.08-.74-.08-1.23-.25-.25 0-.33-.08-.57-.08-.25-.08-.33-.08-.41-.25-.33-.08-.57-.25-.74-.33-.41-.25-.66-.33-.66-.33l.33-.33a2.9 2.9 0 0 1 .9-.66c.33-.25.9-.57 1.39-.74.42-.4 1.08-.65 1.81-.73z"/><path id="h" d="M10.24 6.15c-.74.25-1.56.9-1.97 1.39l-.57.74c-.08.24-.24.32-.24.32l.9.25c.57 0 1.23 0 1.97-.33s1.39-.9 1.88-1.31l.33-.33.25-.25.25-.25s-.33-.25-.74-.33c-.25-.08-.57-.08-.9-.08-.42-.07-.83-.07-1.16.18z"/><path id="i" d="M6.88 12.29c-.74.57-1.31 1.39-1.64 2.21-.08.25-.08.33-.24.58-.08 0-.08.25-.08.33-.08.25-.08.41-.08.41s.41 0 .98-.08c.33-.08.66-.08.98-.33.33-.08.66-.33 1.07-.66.66-.57 1.23-1.31 1.64-1.97 0-.25.25-.57.33-.74.08-.25.08-.33.08-.33s-.08 0-.25-.08c-.25 0-.41-.08-.66-.08-.33 0-.66 0-.98.08l-1.15.66z"/><path id="j" d="M5.24 19.09c-.66.74-.98 1.88-1.07 2.87 0 .25 0 .41-.08.66v.98s.08 0 .33-.08.41-.25.74-.33.57-.33.9-.66c.33-.25.66-.57.9-.98.57-.74.9-1.64 1.07-2.38 0-.25.08-.33.08-.57 0-.08.08-.33.08-.41.08-.25.08-.33.08-.33s-.41 0-1.07.08c-.33 0-.66.08-.98.33-.16.09-.65.41-.98.82z"/><path id="k" d="M5.82 25.98c-.33.98-.33 2.29-.08 3.28 0 .08 0 .25.08.33 0 .08.08.25.08.33.08.25.08.33.25.57 0 .08.08.25.08.33v.08l.25-.25c.08-.08.33-.33.66-.57.41-.57.98-1.31 1.23-2.29.33-.98.33-2.05.33-2.87v-1.39s-.08 0-.33.08-.41.25-.74.33-.66.33-.98.66c-.08.08-.33.33-.41.57-.18.23-.34.48-.42.81z"/><path id="l" d="M8.52 32.2v.41c0 .08 0 .33.08.41 0 .33.08.57.25.9 0 .08.08.33.08.41s.08.08.08.25c0 .08.08.08.08.25.08.25.25.57.41.74.33.41.57.9.74 1.07.25.25.33.41.33.41s.08-.08.25-.33c.08-.25.25-.41.41-.9.08-.33.25-.74.33-1.23.08-.41.08-.98.08-1.56 0-1.07-.33-2.21-.66-2.95-.25-.25-.25-.41-.33-.66s-.08-.33-.25-.41c-.08-.25-.08-.41-.08-.41s-.08.08-.33.25c-.25.08-.41.33-.66.66-.08.08-.25.33-.33.41-.08.25-.25.33-.33.57s-.25.41-.25.74c.1.4.1.73.1.97z"/><path id="m" d="M13.03 37.37c.25.66.57 1.23.9 1.72.25.25.41.57.66.74l.33.33.33.33c.41.33.9.66 1.23.74.08.08.33.08.33.25.08 0 .08.08.08.08s0-.08.08-.33c0-.25.08-.57.08-.98s0-.9-.08-1.39c0-.25-.08-.57-.08-.74-.08-.25-.08-.57-.25-.74-.41-1.07-1.07-1.97-1.64-2.7l-.16-.25-.25-.25-.33-.33-.33-.33s-.08.08-.25.33c-.08.25-.33.41-.41.9-.08.25-.08.41-.25.66-.08.25-.08.41-.08.66v.74c-.08-.02.01.23.09.56z"/><path id="n" d="M11.72 1.39c-.98.9-1.56 1.88-1.72 2.62-.17.25-.17.5-.25.58 0 .08-.08.33-.08.41 0 .25-.08.33-.08.33s.08 0 .33-.08c.08 0 .25-.08.33-.25.08-.08.33-.08.41-.16a11.23 11.23 0 0 0 2.38-1.64c.74-.66 1.39-1.56 1.88-2.05.08-.08.25-.33.33-.41s.25-.25.25-.33c.4-.33.4-.41.4-.41h-.74c-.25 0-.33 0-.57.08-.25 0-.41.08-.66.25-.08 0-.25.08-.33.08s-.25.08-.33.08c-.08.08-.25.08-.33.25-.08.08-.25.08-.33.25a.61.61 0 0 0-.57.25c-.08.07-.16.15-.32.15z"/><path id="o" d="M18.85 40.64c.25.25.41.57.66.74.25.25.57.41.9.57a2.13 2.13 0 0 0 .9.41c.33.08.66.25.9.33.57.08 1.07.25 1.39.25h.57s0-.08-.08-.41l-.33-.98c-.08-.25-.25-.41-.33-.66-.08-.08-.08-.25-.25-.33-.08-.08-.08-.25-.25-.33-.08-.25-.33-.41-.41-.66-.25-.25-.33-.41-.57-.66-.74-.9-1.72-1.56-2.54-1.97-.08-.08-.25-.08-.25-.25-.08-.08-.25-.08-.25-.08-.08-.08-.33-.25-.41-.25-.25-.08-.33-.25-.33-.25s-.08.08-.08.41c-.08.25-.08.57-.25.98 0 .41 0 .9.08 1.39.27.61.52 1.18.93 1.75z"/><path id="p" d="M25.81 48.92c.74-.98 1.07-2.29 1.23-3.28 0-.57.08-.98.08-1.31v-.57s-.57.08-1.23.57a5.88 5.88 0 0 0-2.21 1.97c-.66.98-.98 2.05-1.23 2.95-.08.25-.08.41-.08.66s-.08.33-.08.41c0 .25-.08.41-.08.41s.57 0 1.31-.25c.33-.08.74-.25 1.23-.57.24-.17.57-.5 1.06-.99z"/><path id="q" d="M28.19 48.92c-.74-.98-1.07-2.29-1.23-3.28 0-.57-.08-.98-.08-1.31v-.57s.57.08 1.23.57a5.88 5.88 0 0 1 2.21 1.97c.66.98.98 2.05 1.23 2.95.08.25.08.41.08.66s.08.33.08.41c0 .25.08.41.08.41s-.57 0-1.31-.25c-.33-.08-.74-.25-1.23-.57-.32-.17-.73-.5-1.06-.99z"/><path id="r" d="M43.76 6.39c.74.33 1.56.9 1.97 1.39l.57.74c.08.25.25.33.25.33s-.41.08-.98.25c-.57 0-1.23 0-1.97-.33s-1.39-.9-1.88-1.31l-.33-.33-.25-.25-.25-.25s.33-.25.74-.33c.25-.08.57-.08.9-.08.49-.07.82.01 1.23.17z"/><path id="s" d="M47.03 12.37c.74.57 1.31 1.39 1.64 2.21.08.25.08.33.25.57.08.09.08.34.08.42a1.49 1.49 0 0 1 .08.41s-.41 0-.98-.08c-.33-.08-.66-.08-.98-.33-.33-.08-.66-.33-1.07-.66-.66-.57-1.23-1.31-1.64-1.88-.25-.33-.33-.57-.41-.74-.08-.25-.08-.33-.08-.33s.08 0 .25-.08c.25 0 .41-.08.66-.08.33 0 .66 0 .98.08.49.08.82.25 1.22.49z"/><path id="t" d="M48.67 19.17c.66.74.98 1.88 1.07 2.7 0 .25 0 .41.08.66v.82s-.08 0-.33-.08-.41-.25-.74-.33-.57-.33-.9-.66a3.41 3.41 0 0 1-.9-.98c-.57-.74-.9-1.64-1.07-2.38 0-.25-.08-.33-.08-.57 0-.08-.08-.33-.08-.41-.08-.25-.08-.33-.08-.33s.41 0 1.07.08c.33.08.66.25.98.41.33.26.66.58.98 1.07z"/><path id="u" d="M48.26 25.81c.33.98.33 2.29.08 3.2 0 .08 0 .25-.08.33 0 .08-.08.25-.08.33-.08.25-.08.33-.25.57 0 .08-.08.25-.08.33v.08l-.25-.25c-.08-.08-.33-.33-.66-.57-.41-.57-.98-1.31-1.31-2.29s-.33-1.97-.33-2.87v-1.31s.08 0 .33.08.41.25.74.33c.33.25.66.41.9.74.08.08.33.33.41.57.34.32.5.57.58.73z"/><path id="v" d="M45.64 32.2v.41c0 .08 0 .33-.08.41 0 .33-.08.57-.25.9 0 .08-.08.33-.08.41s0 .08-.08.25c0 .08-.08.08-.08.25-.08.25-.25.57-.41.74-.33.41-.57.74-.74 1.07-.41.25-.49.49-.49.49s-.08-.08-.25-.33c-.08-.25-.25-.41-.41-.9-.08-.33-.25-.74-.33-1.23-.08-.41-.08-.98-.08-1.56 0-1.07.33-2.21.66-2.95.08-.25.08-.41.25-.57.08-.25.08-.33.25-.41.08-.25.08-.33.08-.33s.08.08.33.25c.25.08.41.33.66.66.08.08.25.33.33.41.08.25.25.33.33.57.08.25.25.41.25.66.14.15.14.48.14.8z"/><path id="w" d="M41.22 37.37c-.25.66-.41 1.23-.9 1.64-.25.25-.41.57-.66.74l-.33.33-.33.33c-.41.33-.9.66-1.23.74-.08.08-.33.08-.33.25-.08 0-.08.08-.08.08s0-.08-.08-.33c0-.25-.08-.57-.08-.98s0-.9.08-1.39c0-.25.08-.57.08-.74.08-.25.08-.57.25-.74.41-1.07 1.07-1.97 1.56-2.7l.25-.25.25-.25.33-.33.33-.33s.08.08.25.33c.08.25.33.41.41.9.08.25.08.41.25.66.08.25.08.41.08.66v.74c.06-.02.06.31-.1.64z"/><path id="x" d="M35.4 40.64c-.25.25-.41.57-.66.74-.25.25-.57.41-.9.57a2.13 2.13 0 0 1-.9.41c-.33.08-.66.25-.9.33-.57.08-1.07.25-1.39.25h-.57s0-.08.08-.41l.33-.98c.08-.25.25-.41.33-.66.08-.08.08-.25.25-.33.08-.08.08-.25.25-.33.08-.25.33-.41.41-.66.25-.25.33-.41.57-.66.74-.9 1.72-1.56 2.54-1.97.08-.08.25-.08.25-.25.08-.08.25-.08.25-.08.08-.08.33-.25.41-.25.25-.08.33-.25.33-.25s.08.08.08.41c.08.25.08.57.25.98 0 .41 0 .9-.08 1.39-.28.61-.44 1.18-.93 1.75z"/><path id="y" d="M45.23 5.24c.08.9.41 1.72.74 2.38.08.33.33.66.33.9.08.25.25.33.25.33s.33-.25.66-.66.66-1.07.57-2.05c0-.9-.41-1.88-.9-2.62-.16-.25-.25-.33-.33-.49l-.33-.33c-.08-.25-.25-.33-.25-.33s-.25.33-.41.74c-.08.25-.25.57-.25.9-.24.5-.24.82-.08 1.23z"/><path id="z" d="M48.92 11.72c-.08.98-.08 1.97 0 2.87 0 .25.08.41.08.57 0 .25 0 .33.08.41 0 .25.08.41.08.41s.41-.08.9-.57c.25-.25.41-.41.66-.74s.41-.74.57-1.23c.25-.98.08-2.21-.25-3.03-.07-.41-.24-.74-.32-1.07-.08-.25-.25-.41-.25-.41s-.08 0-.25.08l-.57.57c-.25.25-.33.57-.57.9.09.34-.16.66-.16 1.24z"/><path id="A" d="M50.8 18.85c-.41.98-.66 2.05-.9 2.95 0 .25-.08.41-.08.66s-.08.33-.08.41v.41h.33c.25 0 .41-.08.74-.25.33-.08.66-.33.98-.57.33-.33.66-.66.98-1.23.57-.98.74-2.29.74-3.36v-1.31c0-.33-.08-.57-.08-.57s-.41.08-.98.57c-.25.25-.57.41-.9.74-.17.65-.5 1.06-.75 1.55z"/><path id="B" d="M50.56 26.39c-.74.9-1.39 1.97-1.97 2.7-.08.08-.08.25-.25.33-.08.08-.08.25-.08.33-.08.25-.25.33-.25.41-.08.25-.25.41-.25.41s.08 0 .33.08c.25 0 .57.08.9 0 .66 0 1.64-.25 2.62-1.07.9-.9 1.64-2.21 1.97-3.28.08-.25.08-.57.25-.74.08-.25.08-.41.08-.66.09-.32.09-.56.09-.56h-.33c-.25 0-.57.08-.9.25-.33.08-.74.33-1.07.57-.25.08-.41.33-.66.41-.15.41-.24.57-.48.82z"/><path id="C" d="M47.85 33.51c-.16.08-.33.08-.49.25-.08.08-.33.25-.41.25-.25.25-.57.33-.74.57l-.33.33c-.08 0-.08.08-.25.08-.08 0-.08.08-.25.08-.25.25-.41.33-.66.57-.41.33-.74.66-.98.9l-.33.33s.08.08.33.25c.25.08.41.25.9.33.33.08.9.25 1.31.25.57 0 1.07-.08 1.72-.41 1.23-.57 2.38-1.64 3.2-2.62.25-.25.33-.57.41-.74.08-.25.25-.41.33-.57.25-.33.33-.57.33-.57s-.08 0-.33-.08h-.98c-.25 0-.41 0-.66.08-.25 0-.41.08-.74.08-.25.08-.57.08-.74.25-.14.07-.47.15-.64.39z"/><path id="D" d="M43.02 39.33c-.66.08-1.31.33-1.97.57-.33.08-.66.25-.9.33-.08.08-.33.08-.41.25-.08 0-.33.08-.41.08l-1.31.57c-.08.08-.33.08-.33.08-.08 0-.08.08-.08.08s.08.08.25.33c.08.25.41.41.74.66s.74.57 1.31.66c.25.08.57.08.9.25.33 0 .66.08 1.07 0a2.46 2.46 0 0 0 1.07-.25c.33-.08.74-.25 1.07-.41.33-.08.66-.33 1.07-.57.33-.25.66-.41.9-.57.08 0 .08-.08.25-.08.08 0 .08-.08.25-.08l.33-.33c.25-.25.41-.33.57-.57l.41-.41s-.08-.08-.33-.25c-.25-.08-.57-.25-.98-.33-.25 0-.41-.08-.66-.08s-.57-.08-.74-.08h-.9c-.51.15-.84.15-1.17.15z"/><path id="E" d="M40.81 3.61a11.51 11.51 0 0 0 2.29 1.56c.25.08.33.08.41.25.25 0 .33.08.41.08.25.08.33.08.33.08s0-.08-.08-.33c0-.08-.08-.25-.08-.41 0-.08-.08-.33-.25-.57-.33-.74-.9-1.72-1.72-2.54-.08-.08-.25-.16-.33-.16-.08-.08-.25-.08-.33-.25-.08-.08-.25-.08-.33-.25-.08-.08-.25-.08-.33-.08s-.25-.08-.33-.08-.25-.16-.33-.16-.25-.08-.33-.08h-.33c-.25 0-.33 0-.57-.08h-.74s.08.08.25.33l.25.25c.08.08.25.25.33.41.41.63 1.07 1.37 1.81 2.03z"/><path id="F" d="M36.38 43.35c-.33-.08-.74-.08-1.07-.08s-.74-.08-1.07-.08h-4.18s0 .08.08.41c.08.25.25.57.41.98.08.25.25.41.41.66.08.08.25.25.25.33l.33.33c.25.25.41.41.74.57.33.25.66.33 1.07.41s.74.25 1.23.25c.41.08.9.08 1.31 0 .41 0 .9-.08 1.31-.08.41-.08.9-.08 1.23-.25.25 0 .33-.08.57-.08.25-.08.33-.08.41-.25.33-.08.57-.25.74-.33.41-.25.66-.33.66-.33l-.33-.33c-.25-.25-.41-.41-.9-.66-.33-.25-.9-.57-1.39-.74-.33-.4-.99-.65-1.81-.73z"/></defs></svg>