<svg width="134" height="39" viewBox="0 0 134 39" fill="none" xmlns="http://www.w3.org/2000/svg">
<g clip-path="url(#clip0)">
<path d="M6.38642 35.5519C7.61369 35.5519 8.86369 35.0528 9.88642 34.4402V30.8102C8.56824 31.0598 7.2046 31.1732 5.84097 31.4682C4.75006 31.695 3.9546 32.2622 3.9546 33.51C3.9546 35.0074 5.09097 35.5519 6.38642 35.5519ZM10.0455 37.1628C8.90915 38.3652 7.27279 39.0231 5.68188 39.0231C2.47733 39.0231 0.0909698 36.8678 6.07495e-05 33.7142C-0.068121 30.7648 2.15915 28.8137 4.65915 28.4734L9.97733 27.702C9.86369 26.1366 7.38642 25.5694 6.29551 25.5694C4.90915 25.5694 3.20461 25.9324 2.00006 26.5223H1.56824V22.9376C3.1137 22.5066 4.65915 22.1436 6.36369 22.1436C10.0682 22.1436 13.6819 23.5275 13.8182 27.6113V38.6375H10.0455V37.1628Z" fill="#000100"/>
<path d="M25.659 25.8411H25.1363C23.7726 25.2966 21.7499 25.8638 20.4999 26.6352V38.637H16.5908V22.4834H20.3863V23.527C22.0226 22.6876 23.7726 22.1431 25.659 22.1431V25.8411Z" fill="#000100"/>
<path d="M44.0229 28.7451C44.0229 27.4746 43.8638 25.7504 42.1592 25.8184C41.1365 25.8411 40.2729 26.6806 39.6365 27.3839V38.6369H35.7729V28.7451C35.7729 27.52 35.6592 25.8184 34.0229 25.8184C33.0683 25.8184 31.9774 26.4991 31.2956 27.1116V38.6369H27.3638V22.4833H31.2047V23.5724C31.9774 22.801 33.2047 22.143 34.3183 22.143C35.9774 22.1203 37.3865 22.801 38.3638 23.9807C39.4547 23.0052 40.8638 22.0977 42.4319 22.0977C45.841 22.0977 47.9092 24.7521 47.9319 28.1779V38.6369H44.0001V28.7451H44.0229Z" fill="#000100"/>
<path d="M55.8408 35.5514C57.068 35.5514 58.318 35.0523 59.3408 34.4398V30.8097C58.0226 31.0593 56.6589 31.1727 55.2953 31.4677C54.2044 31.6946 53.4089 32.2617 53.4089 33.5096C53.4089 35.0069 54.5453 35.5514 55.8408 35.5514ZM59.4999 37.1623C58.3635 38.3647 56.7271 39.0227 55.1362 39.0227C51.9317 39.0227 49.5453 36.8673 49.4544 33.7138C49.3862 30.7644 51.6135 28.8132 54.1135 28.4729L59.4317 27.7015C59.318 26.1361 56.8408 25.5689 55.7499 25.5689C54.3635 25.5689 52.6589 25.9319 51.4544 26.5218H51.0226V22.9371C52.568 22.5061 54.1135 22.1431 55.818 22.1431C59.5226 22.1431 63.1362 23.527 63.2726 27.6108V38.637H59.4999V37.1623V37.1623Z" fill="#000100"/>
<path d="M80.2723 28.1553V38.637H76.3632V28.5637C76.3859 27.0209 75.6586 25.7504 73.9313 25.7504C72.6359 25.7504 70.9995 26.3403 69.9086 27.0663V38.637H65.9768V22.4834H69.7723V23.527C71.2495 22.7783 72.8859 22.1431 74.4995 22.1431C77.9086 22.1431 80.2723 24.548 80.2723 28.1553Z" fill="#000100"/>
<path d="M86.9089 38.637H82.9771V22.4834H86.9089V38.637ZM86.9543 20.9179H82.9998V17.061H86.9543V20.9179Z" fill="#000100"/>
<path d="M104.114 28.1553V38.637H100.182V28.5637C100.204 27.0209 99.4772 25.7504 97.75 25.7504C96.4545 25.7504 94.8181 26.3403 93.7272 27.0663V38.637H89.7954V22.4834H93.5909V23.527C95.0681 22.7783 96.7045 22.1431 98.3181 22.1431C101.75 22.1431 104.114 24.548 104.114 28.1553Z" fill="#000100"/>
<path d="M113.795 35.4829C116.022 35.4829 117.477 33.5771 117.477 30.5597C117.477 27.5422 116 25.6365 113.795 25.6365C111.613 25.6365 110.113 27.5422 110.113 30.5597C110.113 33.5771 111.591 35.4829 113.795 35.4829ZM113.818 22.1426C118.386 22.1426 121.5 25.4323 121.5 30.5597C121.5 35.6871 118.409 38.9768 113.818 38.9768C109.227 38.9768 106.068 35.6871 106.068 30.5597C106.068 25.4323 109.227 22.1426 113.818 22.1426Z" fill="#000100"/>
<path d="M126.727 10.5265L122.341 0.657376C122.204 0.362437 121.954 0.135561 121.681 0.0448102C121.409 -0.0459402 121.159 0.0221226 121.022 0.226311L110.636 16.6521C110.477 16.9017 110.545 17.3101 110.818 17.605C111.068 17.9226 111.454 18.0588 111.75 17.968L126.727 10.5265Z" fill="#CC7C2D"/>
<path d="M122.636 20.5538C122.477 20.7353 122.477 21.0302 122.613 21.3025C122.75 21.5974 123 21.8243 123.272 21.915L132.068 24.819C132.341 24.9098 132.568 24.8417 132.704 24.6602C132.841 24.4787 132.841 24.2065 132.727 23.9342L128.977 15.5625L122.636 20.5538Z" fill="#918F3C"/>
<path d="M133.75 8.64417C133.5 8.30386 133.091 8.14505 132.795 8.25848L126.727 10.5272L128.977 15.5639L133.863 9.64243C134.068 9.39286 134.023 8.98449 133.75 8.64417Z" fill="#000100"/>
</g>
<defs>
<clipPath id="clip0">
<rect width="134" height="39" fill="white"/>
</clipPath>
</defs>
</svg>
